# xmcd CD database file
#
# Track frame offsets:
#	150
#	13780
#	37419
#	66261
#	84475
#	103129
#	118501
#	145471
#	159352
#	169874
#	218985
#	234830
#	246830
#	265011
#	280961
#
# Disc length: 4678 seconds
#
# Revision: 0
# Processed by: cddbd v1.5.2PL0 Copyright (c) Steve Scherf et al.
# Submitted via: CDex 1.70beta2
#
DISCID=d912440f
DTITLE=Various Artist - Jazz For Dinner Originals
DYEAR=2007
DGENRE=Jazz
TTITLE0=Sarah Vaughan - Misty
TTITLE1=Bill Evans - What Are You Doing The Rest Of Your Life
TTITLE2=Chet Baker - Deep In A Dream
TTITLE3=Nina Simone - I Love You Porgy
TTITLE4=Miles Davis - Out Of Nowhere
TTITLE5=Ahmad Jamal - But Not For Me
TTITLE6=Buddy Rich - My Funny Valentine
TTITLE7=Billie Holiday - The Man I Love
TTITLE8=Kay Starr - Nevertheless (Iﾴm Not With You)
TTITLE9=Dinah Washington - Blue Skies
TTITLE10=Artie Shaw - Stardust
TTITLE11=Mel Torme - One Mornig In May
TTITLE12=McRae - Superwoman
TTITLE13=Art Pepper - 'Round Midnight
TTITLE14=Miles Davis - All Of You
EXTD=YEAR: 2007
EXTT0=
EXTT1=
EXTT2=
EXTT3=
EXTT4=
EXTT5=
EXTT6=
EXTT7=
EXTT8=
EXTT9=
EXTT10=
EXTT11=
EXTT12=
EXTT13=
EXTT14=
PLAYORDER=
